<?xml version="1.0" encoding="UTF-8"?>
<svg width="48px" height="48px" viewBox="0 0 48 48" version="1.1" xmlns="http://www.w3.org/2000/svg" xmlns:xlink="http://www.w3.org/1999/xlink">
    <!-- Generator: Sketch 64 (93537) - https://sketch.com -->
    <title>Shape</title>
    <desc>Created with Sketch.</desc>
    <g id="Page-1" stroke="none" stroke-width="1" fill="none" fill-rule="evenodd">
        <g id="Main-Page" transform="translate(-1067.000000, -1627.000000)" fill="#0ED75A" fill-rule="nonzero" stroke="#0ED75A" stroke-width="0.5">
            <g id="icons8-3d" transform="translate(1068.000000, 1628.000000)">
                <path d="M23,0 C10.309288,0 0,10.309297 0,23 C0,35.690703 10.309288,46 23,46 C35.690712,46 46,35.690703 46,23 C46,10.309297 35.690712,0 23,0 Z M23,2 C34.609833,2 44,11.390175 44,23 C44,34.609825 34.609833,44 23,44 C11.390167,44 2,34.609825 2,23 C2,11.390175 11.390167,2 23,2 Z M14.806641,13.998047 C9.769641,13.998047 9.318969,18.523047 9.292969,19.623047 L11.421875,19.623047 C11.453875,18.865047 11.809641,15.914063 14.806641,15.914062 C17.613641,15.914062 18,17.828156 18,18.785156 C18,19.264156 17.709328,21.658203 14.611328,21.658203 L13.740234,21.658203 L13.740234,23.476562 C14.127234,23.380562 14.514047,23.380859 14.998047,23.380859 C15.481047,23.380859 18.773438,23.477422 18.773438,26.732422 C18.773438,29.891422 15.385344,30.179688 14.902344,30.179688 C13.186344,30.179688 11.198672,29.148047 11.138672,26.373047 L9,26.373047 C9.019,27.755047 9.444344,32 14.902344,32 C15.967344,32 21,31.713672 21,26.638672 C21,23.479672 18.870641,22.520125 17.806641,22.328125 L17.806641,22.232422 C18.484641,21.850422 20.226563,20.700453 20.226562,18.689453 C20.226562,17.923453 20.033641,13.998047 14.806641,13.998047 Z M24,14 L24,32 L29.505859,32 C34.857859,32 38,28.670141 38,22.994141 C38,17.331141 34.844859,14 29.505859,14 L24,14 Z M26,16 L29.505859,16 C34.873859,16 36,19.803141 36,22.994141 C36,26.190141 34.873859,30 29.505859,30 L26,30 L26,16 Z" id="Shape"></path>
            </g>
        </g>
    </g>
</svg>