<?xml version="1.0" encoding="UTF-8"?>
<svg width="56px" height="56px" viewBox="0 0 56 56" version="1.1" xmlns="http://www.w3.org/2000/svg" xmlns:xlink="http://www.w3.org/1999/xlink">
    <!-- Generator: Sketch 64 (93537) - https://sketch.com -->
    <title>Shape</title>
    <desc>Created with Sketch.</desc>
    <g id="Page-1" stroke="none" stroke-width="1" fill="none" fill-rule="evenodd">
        <g id="Main-Page" transform="translate(-672.000000, -1623.000000)" fill="#0ED75A" fill-rule="nonzero">
            <path d="M700.020064,1623 C688.468527,1623 679.069816,1632.4 679.010648,1643.98182 L673.221224,1643.98182 C673.184813,1643.98182 673.148401,1643.98182 673.11199,1643.98182 C672.470238,1644.01364 671.96958,1644.55909 672.00144,1645.2 C672.033301,1645.84091 672.579473,1646.34091 673.221224,1646.30909 L679.010648,1646.30909 L679.010648,1654.05455 C679.010648,1661.25 682.8293,1665.88182 688.331983,1668.16364 C688.800781,1674.20909 693.852871,1679 700.020064,1679 C706.187256,1679 711.239346,1674.20909 711.708144,1668.16364 C717.201725,1665.87727 721.02948,1661.23636 721.02948,1654.05455 L721.02948,1646.30909 L726.818903,1646.30909 C727.237635,1646.31364 727.629059,1646.09545 727.842975,1645.73182 C728.052342,1645.36818 728.052342,1644.92273 727.842975,1644.55909 C727.629059,1644.19545 727.237635,1643.97727 726.818903,1643.98182 L721.02948,1643.98182 C720.970311,1632.4 711.571602,1623 700.020064,1623 Z M700.020064,1625.4 C710.310854,1625.4 718.626323,1633.74091 718.626323,1644.09091 L718.626323,1644.89091 C718.626323,1644.92727 718.626323,1644.96364 718.626323,1645 C718.617221,1645.07273 718.617221,1645.14545 718.626323,1645.21818 C718.621772,1645.26818 718.621772,1645.31364 718.626323,1645.36364 L718.626323,1654.05455 C718.626323,1660.07273 715.981941,1663.53636 711.635321,1665.58182 C710.816063,1659.90455 705.923272,1655.50909 700.020064,1655.50909 C694.116855,1655.50909 689.224064,1659.90455 688.404806,1665.58182 C684.062739,1663.53182 681.413804,1660.06818 681.413804,1654.05455 L681.413804,1644.09091 C681.413804,1633.74091 689.729273,1625.4 700.020064,1625.4 Z M692.337244,1639.29091 C688.118065,1639.29091 684.836482,1642.37727 684.836482,1646.45455 C684.836482,1649.26818 685.487337,1651.26818 686.547821,1652.6 C687.608305,1653.93182 689.05111,1654.49091 690.334614,1654.49091 C692.792388,1654.49091 694.954319,1653.70909 696.488151,1652.27273 C698.021984,1650.83636 698.891308,1648.77727 698.891308,1646.45455 C698.891308,1644.74545 698.231351,1643.01364 697.107146,1641.65455 C695.982942,1640.29545 694.317118,1639.29091 692.337244,1639.29091 Z M707.702883,1639.29091 C705.723009,1639.29091 704.057185,1640.29545 702.932981,1641.65455 C701.808777,1643.01364 701.148819,1644.74545 701.148819,1646.45455 C701.148819,1648.77727 702.018143,1650.83636 703.551976,1652.27273 C705.085809,1653.70909 707.24774,1654.49091 709.705514,1654.49091 C710.989018,1654.49091 712.431823,1653.93182 713.492306,1652.6 C714.55279,1651.26818 715.203645,1649.26818 715.203645,1646.45455 C715.203645,1642.37727 711.922062,1639.29091 707.702883,1639.29091 Z M692.337244,1641.69091 C693.506962,1641.69091 694.485521,1642.25909 695.250162,1643.18182 C696.014802,1644.10455 696.488151,1645.38182 696.488151,1646.45455 C696.488151,1648.2 695.887362,1649.55909 694.849635,1650.52727 C693.811909,1651.49545 692.287178,1652.09091 690.334614,1652.09091 C689.729273,1652.09091 689.060212,1651.85 688.441217,1651.07273 C687.822222,1650.29545 687.239639,1648.9 687.239639,1646.45455 C687.239639,1643.58636 689.201307,1641.69091 692.337244,1641.69091 Z M707.702883,1641.69091 C710.83882,1641.69091 712.800488,1643.58636 712.800488,1646.45455 C712.800488,1648.9 712.217905,1650.29545 711.59891,1651.07273 C710.979915,1651.85 710.310854,1652.09091 709.705514,1652.09091 C707.752949,1652.09091 706.228219,1651.49545 705.190492,1650.52727 C704.152765,1649.55909 703.551976,1648.2 703.551976,1646.45455 C703.551976,1645.38182 704.025325,1644.10455 704.789966,1643.18182 C705.554607,1642.25909 706.533165,1641.69091 707.702883,1641.69091 Z M700.020064,1658.05455 C705.131324,1658.05455 709.232165,1662.15 709.232165,1667.25455 C709.232165,1672.35909 705.131324,1676.45455 700.020064,1676.45455 C694.908804,1676.45455 690.807963,1672.35909 690.807963,1667.25455 C690.807963,1662.15 694.908804,1658.05455 700.020064,1658.05455 Z M700.020064,1659.10909 C698.732008,1659.10909 697.68973,1660.15 697.68973,1661.43636 C697.68973,1662.72273 698.732008,1663.76364 700.020064,1663.76364 C701.30812,1663.76364 702.350398,1662.72273 702.350398,1661.43636 C702.350398,1660.15 701.30812,1659.10909 700.020064,1659.10909 Z M694.95887,1662.01818 C693.670814,1662.01818 692.628536,1663.05909 692.628536,1664.34545 C692.628536,1665.63182 693.670814,1666.67273 694.95887,1666.67273 C696.246926,1666.67273 697.289204,1665.63182 697.289204,1664.34545 C697.289204,1663.05909 696.246926,1662.01818 694.95887,1662.01818 Z M705.081257,1662.01818 C703.793202,1662.01818 702.750924,1663.05909 702.750924,1664.34545 C702.750924,1665.63182 703.793202,1666.67273 705.081257,1666.67273 C706.369313,1666.67273 707.411591,1665.63182 707.411591,1664.34545 C707.411591,1663.05909 706.369313,1662.01818 705.081257,1662.01818 Z M694.95887,1667.83636 C693.670814,1667.83636 692.628536,1668.87727 692.628536,1670.16364 C692.628536,1671.45 693.670814,1672.49091 694.95887,1672.49091 C696.246926,1672.49091 697.289204,1671.45 697.289204,1670.16364 C697.289204,1668.87727 696.246926,1667.83636 694.95887,1667.83636 Z M705.081257,1667.83636 C703.793202,1667.83636 702.750924,1668.87727 702.750924,1670.16364 C702.750924,1671.45 703.793202,1672.49091 705.081257,1672.49091 C706.369313,1672.49091 707.411591,1671.45 707.411591,1670.16364 C707.411591,1668.87727 706.369313,1667.83636 705.081257,1667.83636 Z M700.020064,1670.74545 C698.732008,1670.74545 697.68973,1671.78636 697.68973,1673.07273 C697.68973,1674.35909 698.732008,1675.4 700.020064,1675.4 C701.30812,1675.4 702.350398,1674.35909 702.350398,1673.07273 C702.350398,1671.78636 701.30812,1670.74545 700.020064,1670.74545 Z" id="Shape"></path>
        </g>
    </g>
</svg>