<?xml version="1.0" encoding="UTF-8"?>
<svg width="60px" height="60px" viewBox="0 0 60 60" version="1.1" xmlns="http://www.w3.org/2000/svg" xmlns:xlink="http://www.w3.org/1999/xlink">
    <!-- Generator: Sketch 64 (93537) - https://sketch.com -->
    <title>Shape</title>
    <desc>Created with Sketch.</desc>
    <g id="Page-1" stroke="none" stroke-width="1" fill="none" fill-rule="evenodd">
        <g id="Main-Page" transform="translate(-278.000000, -1623.000000)" fill="#0ED75A" fill-rule="nonzero">
            <path d="M279.223824,1623.00392 C279.168224,1623.01403 279.112626,1623.0292 279.06208,1623.04436 C278.576849,1623.1303 278.187653,1623.48415 278.051181,1623.95427 C277.91471,1624.42945 278.056236,1624.93496 278.415105,1625.26859 L315.535304,1662.35257 L317.395357,1664.21284 L335.753277,1682.61329 C336.268836,1683.1289 337.097773,1683.1289 337.613331,1682.61329 C338.12889,1682.09767 338.12889,1681.26864 337.613331,1680.75302 L319.214975,1662.35257 C319.679988,1661.80157 320.129838,1661.2354 320.508925,1660.61363 C320.968885,1660.85122 321.474334,1661.20002 321.924184,1661.62464 C322.950246,1662.59016 323.662929,1663.72755 323.662929,1663.72755 C323.799401,1663.93987 323.996526,1664.11174 324.229032,1664.21284 C324.244196,1664.21284 324.254305,1664.21284 324.269468,1664.21284 C325.244985,1665.57771 326.710789,1666.59883 328.515243,1666.59883 C331.477177,1666.59883 333.893224,1664.18251 333.893224,1661.22024 C333.893224,1658.25797 331.477177,1655.8012 328.515243,1655.8012 C327.681252,1655.8012 326.958459,1656.15 326.25083,1656.48869 C326.068868,1656.49375 325.89196,1656.53419 325.725162,1656.61002 C324.825463,1656.99926 324.183542,1656.8476 323.339442,1656.44825 C322.995736,1656.28649 322.646976,1656.07418 322.288107,1655.84165 C322.470069,1654.91657 322.611595,1653.98138 322.611595,1653.01081 C322.611595,1652.84904 322.611595,1652.68728 322.611595,1652.52552 C322.66214,1652.49519 322.737957,1652.46991 322.85421,1652.4042 C323.177698,1652.21211 323.688201,1651.94924 324.309904,1651.75715 C325.538147,1651.37802 327.130312,1651.19604 328.313063,1651.43363 C328.328227,1651.43868 328.338335,1651.42857 328.353499,1651.43363 C328.368663,1651.43868 328.378771,1651.42857 328.393935,1651.43363 C328.464699,1651.44879 328.560733,1651.4589 328.636551,1651.47407 C328.864003,1651.51451 329.101564,1651.55495 329.364398,1651.55495 C331.760228,1651.55495 333.73148,1649.58347 333.73148,1647.18737 C333.73148,1644.79127 331.760228,1642.81979 329.364398,1642.81979 C327.731796,1642.81979 326.30643,1643.76003 325.563419,1645.08446 C325.204549,1645.61524 324.087507,1646.28251 323.015954,1646.45944 C321.944401,1646.63637 321.216554,1646.40889 320.913285,1645.89327 C320.802087,1645.71129 320.650451,1645.55964 320.468489,1645.44843 C318.618546,1642.39516 315.717266,1640.06983 312.219556,1639.01838 C312.103303,1638.97288 311.981995,1638.94761 311.855633,1638.9375 C311.774761,1638.92739 311.693889,1638.92739 311.613017,1638.9375 C311.572581,1638.94761 311.532145,1638.96277 311.491709,1638.97794 C311.355238,1638.82629 311.218767,1638.67463 311.127786,1638.49265 C310.900334,1638.04275 310.78408,1637.47153 310.804298,1636.83459 C310.849788,1635.56071 311.532145,1634.02397 311.653453,1633.84199 C312.3257,1632.85119 313.392199,1631.73403 313.392199,1629.91926 C313.392199,1626.95699 310.976152,1624.54066 308.014218,1624.54066 C305.052285,1624.54066 302.636237,1626.95699 302.636237,1629.91926 C302.636237,1630.60674 302.803035,1631.15775 302.959725,1631.6582 C303.040596,1631.91095 303.136632,1632.12832 303.20234,1632.30525 C303.268048,1632.48218 303.24783,1632.54284 303.323648,1632.70965 C303.338812,1632.70965 303.34892,1632.70965 303.364084,1632.70965 C304.65298,1635.43434 305.24941,1637.41087 305.385881,1638.61397 C305.385881,1638.62914 305.385881,1638.63925 305.385881,1638.65441 C303.343866,1639.02343 301.45854,1639.79686 299.805721,1640.91908 C299.098092,1640.14566 298.683624,1638.90211 298.794822,1638.37133 C298.820094,1638.27528 298.830204,1638.18429 298.835258,1638.12869 C298.986893,1637.60801 299.077874,1637.11262 299.077874,1636.63239 C299.077874,1633.66001 296.631499,1631.21335 293.659457,1631.21335 C292.117837,1631.21335 290.758178,1631.86546 289.777606,1632.91186 L280.275159,1623.40833 C280.007271,1623.12019 279.618075,1622.97359 279.223824,1623.00392 Z M308.014218,1627.12886 C309.576056,1627.12886 310.804298,1628.35218 310.804298,1629.91926 C310.804298,1630.68257 310.339285,1631.16786 309.510348,1632.38613 C308.883591,1633.31121 308.282106,1634.82267 308.216398,1636.71327 C308.186071,1637.65857 308.337705,1638.70496 308.822937,1639.66543 C309.308168,1640.62589 310.167433,1641.4802 311.370401,1641.97054 C311.779815,1642.18791 312.270102,1642.17274 312.664352,1641.9301 C315.156217,1642.98155 317.22856,1644.83676 318.527564,1647.18737 C318.633708,1647.38452 318.785343,1647.55133 318.972359,1647.67266 C320.048966,1648.99708 321.883748,1649.25995 323.420314,1649.00719 C325.113569,1648.72916 326.751225,1647.95068 327.706524,1646.54032 C327.736851,1646.48977 327.762124,1646.43416 327.787396,1646.37856 C328.085611,1645.80228 328.671932,1645.40798 329.364398,1645.40798 C330.365188,1645.40798 331.143579,1646.18647 331.143579,1647.18737 C331.143579,1648.18827 330.365188,1648.96675 329.364398,1648.96675 C329.253199,1648.96675 329.101564,1648.95664 328.960038,1648.92631 C328.93982,1648.92126 328.93982,1648.93137 328.919602,1648.92631 C328.88422,1648.92126 328.874112,1648.93137 328.83873,1648.92631 C327.014059,1648.55729 325.133787,1648.8151 323.582057,1649.29028 C322.798611,1649.52787 322.090981,1649.84634 321.519824,1650.17997 C321.236772,1650.34679 320.989103,1650.51866 320.751541,1650.74614 C320.564525,1650.92306 320.392672,1651.13538 320.26631,1651.47407 C320.089402,1651.72176 320.003476,1652.02001 320.023694,1652.32332 C320.038858,1652.55585 320.023694,1652.77827 320.023694,1653.01081 C320.023694,1653.51631 319.96304,1654.02182 319.902386,1654.50711 C319.877114,1654.50711 319.846786,1654.50711 319.821514,1654.50711 C319.781078,1654.50711 319.740642,1654.50711 319.700206,1654.50711 C319.164431,1654.5981 318.744908,1655.01261 318.648872,1655.5434 C318.547782,1656.07923 318.790398,1656.61507 319.255411,1656.8931 C319.412101,1656.99926 319.690098,1657.16607 319.902386,1657.29751 C320.07424,1657.49465 320.296637,1657.63619 320.549361,1657.70191 C320.756595,1657.83334 320.913285,1657.93444 321.115465,1658.06588 C320.241038,1657.73224 319.220029,1657.57553 318.204076,1657.94455 C317.759281,1658.07599 317.415575,1658.4349 317.309431,1658.8848 C317.198232,1659.3347 317.339758,1659.80987 317.678409,1660.12834 C317.582373,1660.25978 317.496447,1660.40637 317.395357,1660.53275 L300.897491,1644.03301 C301.332178,1643.99762 301.782028,1643.86113 302.191442,1643.6286 C302.696891,1643.34046 302.919289,1642.74902 302.797981,1642.21318 C303.364084,1641.94021 303.965569,1641.70767 304.577162,1641.52569 C304.688362,1641.89977 304.961304,1642.20307 305.325227,1642.35472 C305.684097,1642.50132 306.09351,1642.4811 306.437216,1642.29406 C307.058919,1641.95032 307.534041,1641.3336 307.771602,1640.636 C308.009164,1639.9384 308.029382,1639.1852 307.933346,1638.33089 C307.74633,1636.63239 307.043755,1634.4486 305.709369,1631.61776 C305.714423,1631.62281 305.668933,1631.6127 305.668933,1631.61776 C305.673987,1631.62787 305.668933,1631.57732 305.668933,1631.57732 C305.668933,1631.57226 305.668933,1631.52171 305.628497,1631.41556 C305.577953,1631.27401 305.492025,1631.05159 305.426317,1630.84939 C305.299955,1630.44498 305.224138,1629.92431 305.224138,1629.91926 C305.224138,1628.35724 306.45238,1627.12886 308.014218,1627.12886 Z M321.317644,1631.73908 C318.77018,1631.73908 316.66751,1633.84199 316.66751,1636.38974 C316.66751,1637.42603 316.525985,1637.90121 316.465331,1638.04781 C316.465331,1638.06297 316.465331,1638.07308 316.465331,1638.08825 C316.030645,1638.53815 315.980099,1639.2408 316.349077,1639.74631 C316.718056,1640.25181 317.395357,1640.42369 317.961461,1640.15071 C317.961461,1640.15071 318.244512,1639.96873 318.406256,1639.78675 C318.568,1639.60477 318.72469,1639.35201 318.851052,1639.05882 C319.098721,1638.46738 319.255411,1637.65857 319.255411,1636.38974 C319.255411,1635.23719 320.16522,1634.32727 321.317644,1634.32727 C322.470069,1634.32727 323.379878,1635.23719 323.379878,1636.38974 C323.379878,1637.52208 322.414469,1638.45221 321.317644,1638.45221 C319.432319,1638.45221 318.689308,1640.11027 318.689308,1640.11027 C318.32033,1640.72699 318.517456,1641.52064 319.134103,1641.88966 C319.745697,1642.25868 320.544307,1642.06153 320.913285,1641.44481 C320.913285,1641.44481 321.373244,1641.04041 321.317644,1641.04041 C323.844891,1641.04041 325.967778,1638.95772 325.967778,1636.38974 C325.967778,1633.84199 323.865109,1631.73908 321.317644,1631.73908 Z M293.659457,1633.80155 C295.206132,1633.80155 296.489973,1635.08554 296.489973,1636.63239 C296.489973,1636.9003 296.434373,1637.15306 296.328229,1637.48164 C296.302957,1637.55746 296.257467,1637.6434 296.247357,1637.72428 C296.237249,1637.78494 296.247357,1637.83044 296.247357,1637.88604 C296.161431,1638.36122 296.222085,1638.91728 296.328229,1639.46322 L291.597224,1634.73168 C292.107727,1634.17562 292.845684,1633.80155 293.659457,1633.80155 Z M313.190019,1645.24622 C311.062078,1645.24622 309.308168,1647.00033 309.308168,1649.12851 C309.308168,1651.2567 311.062078,1653.01081 313.190019,1653.01081 C315.31796,1653.01081 317.07187,1651.2567 317.07187,1649.12851 C317.07187,1647.00033 315.31796,1645.24622 313.190019,1645.24622 Z M286.502294,1645.56975 C284.106465,1645.56975 282.135212,1647.54122 282.135212,1649.93733 C282.135212,1652.33343 284.106465,1654.3049 286.502294,1654.3049 C287.311013,1654.3049 288.054024,1654.06732 288.685835,1653.6983 C288.711108,1653.68313 288.741435,1653.67302 288.766707,1653.65786 C289.818042,1653.14224 290.571161,1652.84399 291.597224,1653.01081 C292.072347,1653.12707 292.567686,1652.96531 292.88612,1652.59629 C293.204553,1652.22727 293.285425,1651.7066 293.098408,1651.2567 C292.911392,1650.8068 292.486814,1650.49844 292.001583,1650.46305 C290.156693,1650.15975 288.670672,1650.82196 287.513193,1651.39319 C287.487921,1651.4033 287.457593,1651.41846 287.432321,1651.43363 C287.149269,1651.6055 286.830836,1651.71671 286.502294,1651.71671 C285.501505,1651.71671 284.723113,1650.93823 284.723113,1649.93733 C284.723113,1648.93642 285.501505,1648.15794 286.502294,1648.15794 C287.038071,1648.15794 287.503085,1648.37531 287.836681,1648.76455 C287.872062,1648.81005 287.912498,1648.85049 287.957988,1648.88587 C288.610018,1649.47731 289.34292,1649.70479 290.101094,1649.85644 C290.859268,1650.0081 291.571951,1650.1092 292.405943,1649.77556 C293.07819,1649.50765 293.401677,1648.74938 293.13379,1648.07706 C292.865902,1647.40474 292.107727,1647.08121 291.43548,1647.34913 C291.516352,1647.31374 291.03112,1647.39463 290.586325,1647.30869 C290.14153,1647.22275 289.722006,1647.00539 289.696734,1646.98517 C288.908233,1646.14097 287.760863,1645.56975 286.502294,1645.56975 Z M295.317331,1645.77195 C294.058762,1647.96585 293.416841,1650.43778 293.416841,1653.01081 C293.416841,1653.80951 293.487605,1654.60821 293.619021,1655.3968 C293.613967,1655.51812 293.629131,1655.6445 293.659457,1655.76076 C293.669566,1655.8012 293.689784,1655.84165 293.699893,1655.88209 C293.720111,1656.02868 293.689784,1656.10956 293.659457,1656.16517 C293.624075,1656.23594 293.512877,1656.31682 293.335969,1656.40781 C292.982155,1656.5898 292.284635,1656.56958 292.284635,1656.56958 C291.49108,1656.10451 290.566107,1655.8012 289.575426,1655.8012 C286.613494,1655.8012 284.197445,1658.25797 284.197445,1661.22024 C284.197445,1664.18251 286.613494,1666.59883 289.575426,1666.59883 C291.349554,1666.59883 292.926556,1665.73441 293.902073,1664.41504 C293.927345,1664.38471 293.917236,1664.36449 293.942508,1664.33416 L293.982944,1664.33416 C294.513666,1663.58601 295.261731,1662.94907 295.842998,1662.71654 C296.429319,1662.47895 296.666881,1662.46884 297.096512,1662.8783 C297.121784,1662.90358 297.718215,1663.54051 298.71395,1664.33416 C298.673514,1664.33416 298.633078,1664.33416 298.592642,1664.33416 C298.552206,1664.33416 298.51177,1664.33416 298.471335,1664.33416 C297.945667,1664.42515 297.531199,1664.8245 297.42,1665.34517 C297.32902,1665.72936 297.076294,1666.14893 296.773025,1666.43707 C296.545573,1666.65444 296.217031,1666.7707 296.206921,1666.80103 C294.003162,1667.03357 292.284635,1668.83317 292.284635,1671.00685 C292.284635,1673.40295 294.255888,1675.37443 296.651717,1675.37443 C299.022274,1675.37443 301.018799,1673.43328 301.018799,1671.00685 C301.018799,1670.06661 302.312749,1668.53998 302.312749,1668.53998 C302.813145,1668.02436 302.80809,1667.20038 302.292531,1666.69993 C301.776974,1666.19948 300.953091,1666.20454 300.452696,1666.72015 C300.452696,1666.72015 298.430899,1668.44393 298.430899,1671.00685 C298.430899,1672.07852 297.677779,1672.78623 296.651717,1672.78623 C295.650928,1672.78623 294.872535,1672.00775 294.872535,1671.00685 C294.872535,1670.05144 295.423475,1669.43472 296.530409,1669.34879 C297.455382,1669.27296 297.955777,1668.8635 298.552206,1668.29733 C299.148637,1667.73117 299.689467,1666.9628 299.927029,1665.95178 C299.992737,1665.69903 299.977574,1665.43111 299.886593,1665.18341 C301.483813,1666.25509 303.65219,1667.32676 306.073292,1667.48852 C306.24009,1668.11535 306.290636,1668.7169 306.235036,1669.26791 C306.123838,1670.39519 305.557735,1671.27982 305.264574,1671.49214 L305.264574,1671.53258 C303.712844,1672.47282 302.636237,1674.1511 302.636237,1676.10236 C302.636237,1679.06463 305.052285,1681.48095 308.014218,1681.48095 C310.976152,1681.48095 313.392199,1679.06463 313.392199,1676.10236 C313.392199,1673.91857 312.770496,1671.32026 312.340864,1669.10614 C312.18923,1668.33777 312.08814,1667.65028 312.017377,1667.04368 C313.159693,1666.72015 314.241354,1666.28542 315.252252,1665.70914 L313.311327,1663.76799 C313.033329,1663.90448 312.750278,1664.01569 312.462172,1664.13196 C312.275156,1663.56073 311.724217,1663.19172 311.127786,1663.24227 C311.057024,1663.25238 310.991314,1663.26249 310.925606,1663.28271 C310.68299,1663.3282 310.460593,1663.43941 310.278631,1663.60623 C309.308168,1664.38471 309.313222,1665.421 309.348604,1666.39663 C309.383986,1667.37226 309.571002,1668.44393 309.7934,1669.59143 C310.238195,1671.88643 310.804298,1674.47968 310.804298,1676.10236 C310.804298,1677.66437 309.576056,1678.89276 308.014218,1678.89276 C306.45238,1678.89276 305.224138,1677.66437 305.224138,1676.10236 C305.224138,1675.0509 305.780132,1674.16121 306.639396,1673.67593 C306.679832,1673.65065 306.720268,1673.62538 306.760704,1673.59505 C307.9384,1672.74074 308.651085,1671.24949 308.822937,1669.51055 C308.99479,1667.77161 308.549995,1665.74958 307.124627,1663.88931 C306.791031,1663.43436 306.20471,1663.24732 305.673987,1663.42425 C305.138212,1663.59612 304.779342,1664.09657 304.779342,1664.65768 C301.71632,1663.74777 298.91613,1661.05848 298.91613,1661.05848 C298.900966,1661.04331 298.890858,1661.0332 298.875694,1661.01804 C297.738433,1659.92614 296.110886,1659.83009 294.872535,1660.33055 C293.765601,1660.77539 292.896228,1661.60948 292.163327,1662.55478 C292.163327,1662.55478 292.102673,1662.62049 292.082455,1662.63566 C292.021801,1662.68115 291.945983,1662.69126 291.839839,1662.83786 C291.839839,1662.85303 291.839839,1662.86313 291.839839,1662.8783 C291.324282,1663.5759 290.505453,1664.01064 289.575426,1664.01064 C288.013588,1664.01064 286.785346,1662.78225 286.785346,1661.22024 C286.785346,1659.65822 288.013588,1658.3894 289.575426,1658.3894 C290.126366,1658.3894 290.626761,1658.55116 291.071556,1658.83425 C291.137264,1658.87974 291.202974,1658.92018 291.273736,1658.95557 C292.345289,1659.41052 293.437059,1659.25887 294.508612,1658.71292 C295.044389,1658.43995 295.580164,1658.04566 295.92387,1657.41883 C296.267575,1656.792 296.383829,1655.97813 296.206921,1655.1946 C296.186704,1655.11372 296.161431,1655.02778 296.12605,1654.95195 C296.02496,1654.30996 296.004742,1653.65786 296.004742,1653.01081 C296.004742,1651.21626 296.388883,1649.50259 297.136948,1647.9153 C297.253202,1647.94563 297.344182,1647.95574 297.460436,1647.95574 L295.317331,1645.77195 Z M313.190019,1647.83442 C313.917866,1647.83442 314.483969,1648.40058 314.483969,1649.12851 C314.483969,1649.85644 313.917866,1650.42261 313.190019,1650.42261 C312.462172,1650.42261 311.896069,1649.85644 311.896069,1649.12851 C311.896069,1648.40058 312.462172,1647.83442 313.190019,1647.83442 Z M302.838417,1653.01081 C300.710475,1653.01081 298.956566,1654.76492 298.956566,1656.8931 C298.956566,1659.02128 300.710475,1660.77539 302.838417,1660.77539 C304.966358,1660.77539 306.720268,1659.02128 306.720268,1656.8931 C306.720268,1654.76492 304.966358,1653.01081 302.838417,1653.01081 Z M302.838417,1655.599 C303.566264,1655.599 304.132367,1656.16517 304.132367,1656.8931 C304.132367,1657.62103 303.566264,1658.1872 302.838417,1658.1872 C302.11057,1658.1872 301.544466,1657.62103 301.544466,1656.8931 C301.544466,1656.16517 302.11057,1655.599 302.838417,1655.599 Z M328.515243,1658.3894 C330.077081,1658.3894 331.305323,1659.65822 331.305323,1661.22024 C331.305323,1662.78225 330.077081,1664.01064 328.515243,1664.01064 C327.413364,1664.01064 326.468173,1663.35853 326.008214,1662.43345 C325.897016,1662.21609 325.730217,1662.0341 325.522983,1661.90773 C325.522983,1661.90267 325.482547,1661.91278 325.482547,1661.90773 C325.260149,1661.57409 324.790082,1660.79056 323.703365,1659.76438 C323.324278,1659.40547 322.793556,1659.14766 322.328543,1658.83425 C323.430423,1659.3347 324.815354,1659.47624 326.25083,1659.03645 L326.25083,1659.07689 C326.387301,1659.07183 326.523773,1659.04656 326.655189,1658.99601 C326.695625,1658.9859 326.736061,1658.97073 326.776497,1658.95557 C326.847261,1658.93535 326.912969,1658.90502 326.978677,1658.87469 C327.423472,1658.58149 327.94914,1658.3894 328.515243,1658.3894 Z M316.829254,1667.28632 C316.151953,1667.32676 315.616176,1667.85249 315.616176,1668.53998 C315.616176,1669.20219 316.111517,1669.75825 316.748382,1669.83407 C317.006162,1670.07166 317.476229,1671.04729 317.476229,1672.26051 C317.476229,1674.71221 319.270575,1676.50676 321.722004,1676.50676 C322.914864,1676.50676 323.986417,1676.00631 324.7547,1675.21267 L322.935082,1673.39284 C322.631813,1673.72142 322.197127,1673.91857 321.722004,1673.91857 C321.332808,1673.91857 320.06413,1673.78714 320.06413,1672.26051 C320.06413,1671.56796 319.97315,1670.89564 319.781078,1670.23848 L316.829254,1667.28632 Z" id="Shape"></path>
        </g>
    </g>
</svg>